:FULLY-SPECIFIED
:FORCE-ALL-JOINTS-BE-3DOF
:DEGREES
1019
root 1.14711 15.1607 32.4375 4.84442 -3.37067 363.571
lfemur 8.39165 0.408826 5.73317
ltibia -1.33296e-14 0 0
lfoot -30.1371 -10.9743 0
ltoes -34.4354 0 0
rfemur -31.5271 -15.9646 -6.02973
rtibia 50.1728 0 0
rfoot -22.4315 4.58872 0
rtoes -42.7425 0 0
lowerback -1.43127 -0.170549 0.311837
upperback -0.50773 -0.214801 -5.91263
thorax 0.256838 -0.113864 -6.30984
lowerneck -7.21543 0.911995 6.21074
upperneck 1.60019 0.53477 3.42579
head 1.73664 0.39885 0.0448567
lclavicle 4.79286e-16 6.46772e-15 0
lhumerus -58.5738 -46.3548 115.188
lradius 55.7439 0 0
lwrist 25.3169 0 0
lhand 37.2231 24.8925 0
lfingers 7.12502 0 0
lthumb 60.0562 38.6137 0
rclavicle 4.79286e-16 6.46772e-15 0
rhumerus 2.7748 -23.8239 0.288489
rradius 27.6944 0 0
rwrist -10.2888 0 0
rhand -30.7281 -42.9264 0
rfingers 7.12502 0 0
rthumb -4.02053 -792.868 0
1020
root 1.14737 15.1605 32.44 4.84612 -3.36829 363.557
lfemur 8.40074 0.407872 5.74693
ltibia -1.14009e-14 0 0
lfoot -30.1412 -10.97 0
ltoes -34.4449 0 0
rfemur -31.5247 -15.9579 -6.02137
rtibia 50.1826 0 0
rfoot -22.4011 4.63446 0
rtoes -42.6657 0 0
lowerback -1.44175 -0.161401 0.291264
upperback -0.512299 -0.202131 -5.92035
thorax 0.259481 -0.107502 -6.30603
lowerneck -7.21697 0.906602 6.23697
upperneck 1.62156 0.523746 3.43471
head 1.74388 0.39454 0.0429011
lclavicle -1.34542e-15 -3.22232e-15 0
lhumerus -58.5947 -46.3815 115.206
lradius 55.7572 0 0
lwrist 25.3149 0 0
lhand 37.226 24.9242 0
lfingers 7.12502 0 0
lthumb 60.0586 38.6428 0
rclavicle -1.34542e-15 -3.22232e-15 0
rhumerus 2.76217 -23.8186 0.289328
rradius 27.6859 0 0
rwrist -10.2549 0 0
rhand -30.7201 -42.8704 0
rfingers 7.12502 0 0
rthumb -4.01282 -792.812 0
1021
root 1.14766 15.1603 32.4425 4.84699 -3.36821 363.544
lfemur 8.41156 0.408594 5.76002
ltibia -7.55268e-15 0 0
lfoot -30.1447 -10.9686 0
ltoes -34.451 0 0
rfemur -31.5227 -15.9506 -6.01365
rtibia 50.1918 0 0
rfoot -22.3702 4.68307 0
rtoes -42.5858 0 0
lowerback -1.45073 -0.152113 0.270944
upperback -0.516918 -0.189326 -5.92882
thorax 0.261239 -0.10109 -6.30316
lowerneck -7.21852 0.901792 6.26187
upperneck 1.64327 0.513415 3.44854
head 1.75122 0.3907 0.0427454
lclavicle -4.10899e-15 -1.07982e-14 0
lhumerus -58.6174 -46.4134 115.229
lradius 55.7679 0 0
lwrist 25.3087 0 0
lhand 37.2305 24.9531 0
lfingers 7.12502 0 0
lthumb 60.0625 38.6676 0
rclavicle -4.10899e-15 -1.07982e-14 0
rhumerus 2.75001 -23.8171 0.28678
rradius 27.6753 0 0
rwrist -10.2235 0 0
rhand -30.7129 -42.818 0
rfingers 7.12502 0 0
rthumb -4.00585 -792.76 0
1022
root 1.14797 15.1601 32.4449 4.84676 -3.37022 363.532
lfemur 8.42391 0.410664 5.77195
ltibia -4.77578e-16 0 0
lfoot -30.1475 -10.9704 0
ltoes -34.4533 0 0
rfemur -31.5205 -15.9433 -6.00698
rtibia 50.2001 0 0
rfoot -22.3401 4.73334 0
rtoes -42.5054 0 0
lowerback -1.45789 -0.143098 0.251707
upperback -0.521218 -0.176941 -5.93779
thorax 0.262247 -0.0948984 -6.30145
lowerneck -7.2198 0.897737 6.28446
upperneck 1.66416 0.504185 3.46691
head 1.75823 0.387477 0.044453
lclavicle -7.13336e-15 -1.57313e-14 0
lhumerus -58.6404 -46.4491 115.255
lradius 55.7751 0 0
lwrist 25.2988 0 0
lhand 37.237 24.9779 0
lfingers 7.12502 0 0
lthumb 60.068 38.6866 0
rclavicle -7.13336e-15 -1.57313e-14 0
rhumerus 2.73867 -23.8194 0.28099
rradius 27.6627 0 0
rwrist -10.1955 0 0
rhand -30.7066 -42.7715 0
rfingers 7.12502 0 0
rthumb -3.99981 -792.714 0
1023
root 1.14832 15.1599 32.4472 4.84514 -3.37411 363.522
lfemur 8.43757 0.413753 5.78224
ltibia 1.11319e-14 0 0
lfoot -30.1494 -10.9756 0
ltoes -34.4515 0 0
rfemur -31.5177 -15.9368 -6.00177
rtibia 50.2068 0 0
rfoot -22.3119 4.78409 0
rtoes -42.4268 0 0
lowerback -1.4629 -0.134767 0.234384
upperback -0.524829 -0.165532 -5.94701
thorax 0.262641 -0.0892001 -6.30112
lowerneck -7.22052 0.894607 6.30376
upperneck 1.68308 0.496466 3.48946
head 1.76447 0.385014 0.0480874
lclavicle -9.74045e-15 -1.74931e-14 0
lhumerus -58.6625 -46.4871 115.282
lradius 55.7781 0 0
lwrist 25.2854 0 0
lhand 37.2456 24.9973 0
lfingers 7.12502 0 0
lthumb 60.0753 38.6983 0
rclavicle -9.74045e-15 -1.74931e-14 0
rhumerus 2.72856 -23.8255 0.272099
rradius 27.6485 0 0
rwrist -10.1722 0 0
rhand -30.7015 -42.7332 0
rfingers 7.12502 0 0
rthumb -3.99486 -792.676 0
1024
root 1.14917 15.1597 32.4499 4.83996 -3.38152 363.515
lfemur 8.45777 0.418342 5.78714
ltibia 4.78008e-15 0 0
lfoot -30.1512 -10.9866 0
ltoes -34.4422 0 0
rfemur -31.5096 -15.9398 -6.00252
rtibia 50.2087 0 0
rfoot -22.2863 4.85454 0
rtoes -42.3356 0 0
lowerback -1.46976 -0.127258 0.218475
upperback -0.524731 -0.154991 -5.95789
thorax 0.267778 -0.0838137 -6.30339
lowerneck -7.2131 0.892354 6.32116
upperneck 1.68945 0.491265 3.5152
head 1.76515 0.383352 0.0531039
lclavicle -8.34896e-15 -3.07021e-14 0
lhumerus -58.6726 -46.5221 115.3
lradius 55.7692 0 0
lwrist 25.2738 0 0
lhand 37.2603 25.0084 0
lfingers 7.12502 0 0
lthumb 60.0879 38.6961 0
rclavicle -8.34896e-15 -3.07021e-14 0
rhumerus 2.7201 -23.83 0.261461
rradius 27.6268 0 0
rwrist -10.1461 0 0
rhand -30.692 -42.7172 0
rfingers 7.12502 0 0
rthumb -3.98572 -792.66 0
1025
root 1.15028 15.1596 32.453 4.83507 -3.39038 363.509
lfemur 8.47998 0.424312 5.7896
ltibia -7.37195e-16 0 0
lfoot -30.1542 -10.9982 0
ltoes -34.4322 0 0
rfemur -31.5011 -15.9471 -6.00593
rtibia 50.2101 0 0
rfoot -22.2598 4.93637 0
rtoes -42.2348 0 0
lowerback -1.47992 -0.119232 0.200333
upperback -0.523752 -0.143569 -5.96947
thorax 0.275778 -0.0779267 -6.30513
lowerneck -7.20252 0.889763 6.34004
upperneck 1.6909 0.486086 3.53877
head 1.76367 0.381447 0.0571684
lclavicle -6.37328e-15 -3.55379e-14 0
lhumerus -58.679 -46.5559 115.316
lradius 55.7591 0 0
lwrist 25.2658 0 0
lhand 37.2759 25.0214 0
lfingers 7.12502 0 0
lthumb 60.1012 38.695 0
rclavicle -6.37328e-15 -3.55379e-14 0
rhumerus 2.71177 -23.8326 0.252525
rradius 27.6027 0 0
rwrist -10.1142 0 0
rhand -30.6791 -42.7023 0
rfingers 7.12502 0 0
rthumb -3.97323 -792.645 0
1026
root 1.15162 15.1594 32.4563 4.83073 -3.40025 363.505
lfemur 8.50317 0.431373 5.78967
ltibia -5.55902e-15 0 0
lfoot -30.1582 -11.01 0
ltoes -34.422 0 0
rfemur -31.4928 -15.9583 -6.01175
rtibia 50.2111 0 0
rfoot -22.2332 5.02621 0
rtoes -42.1282 0 0
lowerback -1.4928 -0.111003 0.180529
upperback -0.522044 -0.13172 -5.98128
thorax 0.286111 -0.0717785 -6.30615
lowerneck -7.18952 0.886952 6.35958
upperneck 1.68776 0.481108 3.55942
head 1.76025 0.379384 0.0601933
lclavicle -3.78908e-15 -3.2974e-14 0
lhumerus -58.6822 -46.5878 115.327
lradius 55.7486 0 0
lwrist 25.2613 0 0
lhand 37.2915 25.0358 0
lfingers 7.12502 0 0
lthumb 60.1146 38.6952 0
rclavicle -3.78908e-15 -3.2974e-14 0
rhumerus 2.70381 -23.8335 0.245632
rradius 27.5774 0 0
rwrist -10.0781 0 0
rhand -30.6635 -42.6879 0
rfingers 7.12502 0 0
rthumb -3.95825 -792.631 0
